PathFileType	4	(X/Y/Z)	C:\Users\°ÂÌØÂü\Desktop\20210112\bx_y_5_1802-Unnamed.trc
DataRate	CameraRate	NumFrames	NumMarkers	Units	OrigDataRate	OrigDataStartFrame	OrigNumFrames
50.00	50.00	       4	0	mm	50.00	240	       478
Frame#	Time	
		

240	4.780	-655.03101	1.02896	519.89984	-661.10846	-89.36189	1543.90503	-642.67236	205.61635	532.26813	-708.36371	267.83475	748.44012	-690.11084	271.04889	884.10913	-630.80121	202.57715	843.46100	-675.52692	267.59290	1534.43823	-712.79932	-63.70903	708.17816	-706.75366	153.38881	215.12404	-706.51282	246.71185	633.72388	-672.91516	52.17897	161.02837	-698.79712	242.80885	575.22180	-743.99237	251.64192	504.48972	-517.68481	-72.47700	142.79918	-636.23944	-25.30624	819.32813	-667.51587	-71.29110	159.23770	-609.91382	82.75775	1413.86133	-625.36627	-83.44841	157.02603	-769.34631	222.99689	205.30121	-882.60327	296.12067	144.58208	-706.66833	-85.64497	859.12970	-602.47510	14.83576	169.12386	-561.30139	-44.38915	162.55174	-674.07306	175.58212	157.36699	-595.10162	226.95316	173.93620	-667.63232	300.62677	158.82922	-630.43005	309.38232	160.21579	-562.43414	264.52710	165.82097	-528.25409	303.97702	146.16544	-634.06439	102.27966	1842.22339	-672.80280	66.69740	580.54474	-671.17206	-29.70226	1053.43994	-655.50848	144.37871	578.58643	-793.76984	171.55115	184.99426	-768.76740	-5.02167	206.08096	-791.58167	58.18549	176.23241	-708.49670	-36.50640	566.11639	-760.13806	-38.58100	487.93314	-875.97748	-78.88188	141.21204	-870.21997	86.93587	1046.47266	-711.71216	74.50627	217.11157	-703.56793	-41.60424	614.95215	
241	4.800	-653.57642	-0.17600	518.86395	-657.43799	-89.79579	1540.87402	-638.83740	206.72591	531.22980	-707.13892	268.45383	746.82556	-691.90179	271.24539	883.33600	-631.98779	202.34441	843.85498	-671.80017	267.20166	1532.11108	-712.73468	-65.18099	706.66052	-706.45221	153.53409	214.81313	-702.95764	247.56650	632.76587	-672.69482	52.18057	160.97609	-695.19745	244.26529	575.12872	-740.54346	252.31148	503.95410	-517.73041	-72.57544	142.97781	-638.07904	-25.48274	819.07758	-667.74927	-71.49426	158.98334	-608.22266	82.10834	1410.43506	-625.19940	-83.61267	157.23203	-769.23456	223.00226	205.43636	-882.47778	296.06058	144.61819	-709.06677	-86.60135	858.41595	-602.57916	14.75878	169.07057	-561.55182	-44.39902	162.91522	-674.14996	175.80614	157.11192	-595.23468	227.06665	174.03511	-667.58148	300.69366	158.81128	-630.37073	309.33215	160.29385	-562.51813	264.54379	165.72685	-528.18042	304.00562	146.30885	-627.67432	101.62318	1839.02673	-671.06885	64.82477	580.06140	-674.23883	-30.18443	1052.09631	-651.09619	145.32144	578.55267	-793.73816	171.29517	185.19479	-768.56427	-5.05481	206.01039	-791.58167	58.18549	176.23241	-707.34015	-37.18441	565.18542	-758.97107	-39.63539	487.92288	-875.97748	-78.88188	141.21204	-874.06586	86.61265	1045.25928	-712.01904	73.90279	216.35083	-701.78802	-43.13851	614.58673	
242	4.820	-652.08942	-0.73543	517.70898	-654.05658	-90.10155	1537.58203	-636.12946	208.01962	530.50714	-706.72925	268.04861	745.69153	-694.01801	271.01007	882.09735	-633.43994	202.01250	843.12292	-667.77026	267.21463	1529.24707	-712.90387	-66.23923	705.47498	-706.48199	153.76486	214.80045	-700.35791	247.95288	631.74493	-672.77936	52.05747	160.92670	-692.14093	245.07352	574.57617	-737.79547	253.04611	503.60199	-517.67444	-72.70602	143.22456	-639.62274	-26.95620	819.90417	-667.77045	-71.50271	159.02338	-606.34039	82.20660	1406.38599	-625.40900	-83.41808	156.91695	-768.96356	222.91328	205.32312	-882.55920	296.25497	144.75124	-711.26099	-87.40364	857.66296	-602.52692	14.63128	169.23216	-561.36768	-44.40706	162.72620	-673.89551	175.89381	157.25133	-595.05365	227.03346	174.00986	-667.58521	300.67416	158.74756	-630.29382	309.43243	160.22728	-562.48059	264.44293	165.46890	-528.14893	304.20529	146.38045	-620.80585	101.12626	1835.26050	-668.55133	63.91171	580.32214				-647.86548	146.26073	577.56647	-793.62134	171.40950	185.18185	-768.35602	-5.17587	205.93913	-791.58167	58.18549	176.23241	-704.65625	-39.89916	565.91022	-756.57324	-40.78668	487.10858	-876.01788	-78.74021	141.33287	-877.47583	86.72656	1043.91711	-711.66284	74.00939	216.45334	-700.05676	-43.97389	614.12598	
243	4.840	-650.03235	-1.93051	517.09082	-650.33710	-90.25874	1533.83496	-633.48083	208.96254	529.88068	-706.71851	269.51965	744.60931	-696.32080	270.93243	880.83820	-635.84723	202.26872	842.89752	-663.59137	267.09424	1526.54077	-713.18109	-67.55282	705.17432	-706.08936	154.06357	213.98857	-698.21130	248.68443	630.93231	-672.77936	52.05747	160.92670	-689.20636	246.16084	574.76514	-735.34558	253.69235	503.00134	-517.75696	-72.70453	142.78685	-641.34674	-27.98892	819.65619	-667.66577	-71.59406	159.06250				-625.36981	-83.42030	157.02135	-768.84760	222.89586	205.47571	-882.58838	296.24011	144.62192	-713.51788	-87.85790	856.52979	-602.59961	14.54185	169.36948	-561.44531	-44.51192	162.78065	-674.03479	175.98381	157.11116	-594.75446	227.01566	174.17064	-667.50586	300.56924	158.90735	-630.35449	309.67596	160.40590	-562.62701	264.54102	165.58249	-528.16248	304.13895	146.47519	-613.36798	100.85173	1831.32178	-666.33496	62.42032	579.65448				-645.74298	147.27226	576.86511	-793.39948	171.32550	185.26385	-768.09998	-5.39470	206.13171	-791.58167	58.18549	176.23241	-702.23108	-40.75512	564.05560	-754.53650	-41.75387	487.23065	-875.97748	-78.88188	141.21204	-881.56287	86.52232	1042.31567	-711.52753	73.89412	216.34050	-697.81519	-45.55434	613.96326	
